<svg width="24" height="24" viewBox="0 0 24 24" fill="none" xmlns="http://www.w3.org/2000/svg">
<path d="M0 2.4C0 1.07452 1.07452 0 2.4 0H21.6C22.9255 0 24 1.07452 24 2.4V3.6C24 4.92548 22.9255 6 21.6 6H2.4C1.07452 6 0 4.92548 0 3.6V2.4Z" fill="#C4C4C4"/>
<path d="M0 11.4C0 10.0745 1.07452 9 2.4 9H21.6C22.9255 9 24 10.0745 24 11.4V12.6C24 13.9255 22.9255 15 21.6 15H2.4C1.07452 15 0 13.9255 0 12.6V11.4Z" fill="#C4C4C4"/>
<path d="M0 20.4C0 19.0745 1.07452 18 2.4 18H21.6C22.9255 18 24 19.0745 24 20.4V21.6C24 22.9255 22.9255 24 21.6 24H2.4C1.07452 24 0 22.9255 0 21.6V20.4Z" fill="#C4C4C4"/>
</svg>
