<svg width="24" height="24" viewBox="0 0 24 24" fill="none" xmlns="http://www.w3.org/2000/svg">
<path fill-rule="evenodd" clip-rule="evenodd" d="M24 19.5C24 20.3284 23.3284 21 22.5 21H1.5C0.671573 21 0 20.3284 0 19.5V7.5C0 6.67157 0.671573 6 1.5 6H7L8.5547 3.66795C8.8329 3.25065 9.30125 3 9.80278 3H14.1972C14.6988 3 15.1671 3.25065 15.4453 3.66795L17 6H22.5C23.3284 6 24 6.67157 24 7.5V19.5ZM12 19C15.0376 19 17.5 16.5376 17.5 13.5C17.5 10.4624 15.0376 8 12 8C8.96243 8 6.5 10.4624 6.5 13.5C6.5 16.5376 8.96243 19 12 19Z" fill="#C4C4C4"/>
<path d="M16.5 13.5C16.5 15.9853 14.4853 18 12 18C9.51472 18 7.5 15.9853 7.5 13.5C7.5 11.0147 9.51472 9 12 9C14.4853 9 16.5 11.0147 16.5 13.5Z" fill="#C4C4C4"/>
</svg>
