<svg width="24" height="24" viewBox="0 0 24 24" fill="none" xmlns="http://www.w3.org/2000/svg">
<path fill-rule="evenodd" clip-rule="evenodd" d="M4.86689 2.84955L5.4237 5.9075H12.9834L12.982 5.88823C12.973 5.75998 12.9684 5.63052 12.9684 5.5C12.9684 2.46243 15.4379 0 18.4842 0C21.5305 0 24 2.46243 24 5.5C24 6.82894 23.5273 8.04779 22.7405 8.99851C22.6866 9.06354 22.6314 9.12732 22.5746 9.18979L22.0997 10.2353L20.2264 14.8212C19.955 15.6148 19.1934 16.1582 18.3678 16.167L6.69769 16.8745L5.17096 17.8135C5.17023 17.816 5.16936 17.8195 5.16857 17.8242C5.1635 17.8546 5.16595 17.914 5.1966 17.9888C5.22686 18.0628 5.27289 18.1224 5.31669 18.1581C5.35789 18.1916 5.38169 18.1915 5.38169 18.1915H19.5212C19.7981 18.1915 20.0226 18.4154 20.0226 18.6915V18.8594C20.0226 19.1355 19.7981 19.3594 19.5212 19.3594H19.2465C19.8311 19.842 20.2022 20.5631 20.2022 21.3687C20.2022 22.822 18.9946 24 17.5052 24C16.0158 24 14.8083 22.822 14.8083 21.3687C14.8083 20.5631 15.1794 19.842 15.764 19.3594H9.45341C10.038 19.842 10.4091 20.5631 10.4091 21.3687C10.4091 22.822 9.20154 24 7.71213 24C6.22272 24 5.01518 22.822 5.01518 21.3687C5.01518 20.5631 5.38631 19.842 5.97085 19.3594H5.38173C4.71385 19.3594 4.2645 18.8602 4.08511 18.422C3.90522 17.9825 3.87668 17.2855 4.46713 16.8674L4.48297 16.8562L5.85543 16.0121L4.33201 6.58799L3.70133 3.12436C3.62276 2.89579 3.45952 2.72194 3.26363 2.6334C3.26363 2.6334 3.25985 2.6321 3.25448 2.63072C3.2451 2.62831 3.23065 2.62533 3.20873 2.62221L0.430629 2.2267C0.155273 2.1875 -0.0354684 1.9323 0.00555174 1.65798L0.0304494 1.49148C0.0711115 1.21955 0.324321 1.03137 0.597275 1.07023L3.38153 1.46662C3.48558 1.48143 3.62274 1.5089 3.7644 1.57271C4.29309 1.81086 4.688 2.26732 4.85696 2.81723L4.86689 2.84955ZM19.9029 12.459L20.6653 10.5927H20.5712C19.9274 10.8553 19.2228 11 18.4842 11C17.7747 11 17.0965 10.8664 16.4735 10.6231C16.448 10.6131 16.4226 10.603 16.3973 10.5927H15.8205V12.459H19.9029ZM13.2435 7.22C13.2277 7.17206 13.2125 7.12383 13.198 7.07532H11.0904V9.42487H14.6202C13.9992 8.81689 13.5218 8.06351 13.2435 7.22ZM6.00225 9.42487L5.62244 7.07532H9.89353V9.42487H6.00225ZM14.6237 15.2239L11.0904 15.4381V13.6268H14.6237V15.2239ZM19.1002 14.4242L19.4259 13.6268H15.8205V15.1514L18.3288 14.9993H18.3474C18.6555 14.9993 18.9818 14.7834 19.0939 14.4432L19.1002 14.4242ZM7.01424 15.6852L6.6815 13.6268H9.89353V15.5107L7.01424 15.6852ZM6.49272 12.459L6.19103 10.5927H9.89353V12.459H6.49272ZM11.0904 10.5927H14.6237V12.459H11.0904V10.5927ZM21.5574 5.96424C21.8142 5.70747 21.8142 5.29118 21.5574 5.03442C21.3007 4.77766 20.8844 4.77766 20.6276 5.03442L19.1568 6.50522V2.7C19.1568 2.45147 18.9553 2.25 18.7068 2.25H18.2918C18.0433 2.25 17.8418 2.45147 17.8418 2.7V6.50522L16.371 5.03442C16.1143 4.77766 15.698 4.77766 15.4412 5.03442C15.1845 5.29118 15.1845 5.70747 15.4412 5.96424L18.0344 8.55743C18.2912 8.81419 18.7075 8.81419 18.9642 8.55743L21.5574 5.96424Z" fill="#C4C4C4"/>
</svg>
