<svg width="24" height="24" viewBox="0 0 24 24" fill="none" xmlns="http://www.w3.org/2000/svg">
<path fill-rule="evenodd" clip-rule="evenodd" d="M13.0149 5.9075H5.47684L4.92163 2.84955L4.91173 2.81723C4.74325 2.26732 4.34947 1.81086 3.82229 1.57271C3.68104 1.5089 3.54426 1.48143 3.44052 1.46662L0.172305 1L0 2.15559L3.26821 2.62221C3.29007 2.62533 3.30448 2.62831 3.31383 2.63072C3.31919 2.6321 3.32295 2.6334 3.32295 2.6334C3.51828 2.72194 3.68106 2.89579 3.75941 3.12436L4.38828 6.58799L5.90733 16.0121L4.53881 16.8562L4.52302 16.8674C3.93425 17.2855 3.96271 17.9825 4.14209 18.422C4.32096 18.8602 4.76903 19.3594 5.435 19.3594H6.02243C5.43956 19.842 5.06949 20.5631 5.06949 21.3687C5.06949 22.822 6.27358 24 7.75873 24C9.24387 24 10.448 22.822 10.448 21.3687C10.448 20.5631 10.0779 19.842 9.49503 19.3594H15.7875C15.2047 19.842 14.8346 20.5631 14.8346 21.3687C14.8346 22.822 16.0387 24 17.5238 24C19.009 24 20.2131 22.822 20.2131 21.3687C20.2131 20.5631 19.843 19.842 19.2601 19.3594H20.034V18.1915H5.43495C5.43495 18.1915 5.41122 18.1916 5.37014 18.1581C5.32647 18.1224 5.28057 18.0628 5.25039 17.9888C5.21983 17.914 5.21739 17.8546 5.22244 17.8242C5.22323 17.8195 5.22409 17.816 5.22483 17.8135L6.74718 16.8745L18.3839 16.167C19.2071 16.1582 19.9666 15.6148 20.2372 14.8212L22.1052 10.2353L22.5787 9.18979C22.0305 9.79546 21.3492 10.2785 20.581 10.5927H20.6748L19.9147 12.459H15.8439V10.5927H16.419C15.753 10.3203 15.1523 9.92097 14.647 9.42487H11.1273V7.07532H13.2289C13.222 7.05217 13.2153 7.02896 13.2086 7.00569C13.1131 6.66923 13.0488 6.31964 13.019 5.96024C13.0175 5.94268 13.0162 5.9251 13.0149 5.9075ZM5.67501 7.07532L6.05373 9.42487H9.93388V7.07532H5.67501ZM14.6505 10.5927H11.1273V12.459H14.6505V10.5927ZM14.6505 13.6268H11.1273V15.4381L14.6505 15.2239V13.6268ZM15.8439 15.1514V13.6268H19.439L19.1142 14.4242L19.1079 14.4432C18.9962 14.7834 18.6708 14.9993 18.3636 14.9993H18.3451L15.8439 15.1514ZM9.93388 15.5107V13.6268H6.73104L7.06284 15.6852L9.93388 15.5107ZM6.5428 12.459H9.93388V10.5927H6.24197L6.5428 12.459Z" fill="#C4C4C4"/>
<path fill-rule="evenodd" clip-rule="evenodd" d="M20.581 10.5927C21.3492 10.2785 22.0305 9.79546 22.5787 9.18979C23.462 8.21401 24 6.91984 24 5.5C24 2.46243 21.5376 0 18.5 0C15.4624 0 13 2.46243 13 5.5C13 5.63052 13.0045 5.75998 13.0135 5.88823L13.0149 5.9075C13.0162 5.9251 13.0175 5.94268 13.019 5.96024C13.0488 6.31964 13.1131 6.66923 13.2086 7.00569C13.2153 7.02896 13.222 7.05217 13.2289 7.07532C13.4981 7.9774 13.9926 8.78234 14.647 9.42487C15.1523 9.92097 15.753 10.3203 16.419 10.5927C17.0609 10.8553 17.7636 11 18.5 11C19.2364 11 19.9391 10.8553 20.581 10.5927ZM17.75 4.75V2H19.25V4.75H22V6.25H19.25V9H17.75V6.25H15V4.75H17.75Z" fill="#C4C4C4"/>
</svg>
