<svg width="24" height="24" viewBox="0 0 24 24" fill="none" xmlns="http://www.w3.org/2000/svg">
<path fill-rule="evenodd" clip-rule="evenodd" d="M0.179796 0L3.5901 0.486909C3.69836 0.502366 3.84109 0.531025 3.98848 0.59761C4.53857 0.846119 4.94948 1.32242 5.12528 1.89624L5.13561 1.92996L5.71497 5.12087H22.08C22.6787 5.12087 23.2238 5.26874 23.5849 5.72298C23.9102 6.13224 23.9824 6.6738 23.9992 7.17795C24.0078 7.43884 23.9493 7.68734 23.8499 7.90662L23.0663 9.6368L21.1171 14.4222C20.8347 15.2503 20.0422 15.8173 19.1832 15.8265L7.04054 16.5647L5.452 17.5445C5.45123 17.5471 5.45032 17.5507 5.4495 17.5557C5.44423 17.5874 5.44678 17.6494 5.47867 17.7275C5.51016 17.8046 5.55805 17.8669 5.60362 17.9041C5.64649 17.9391 5.67125 17.939 5.67125 17.939H20.905V19.1576H20.0975C20.7057 19.6612 21.0919 20.4136 21.0919 21.2543C21.0919 22.7708 19.8354 24 18.2857 24C16.736 24 15.4796 22.7708 15.4796 21.2543C15.4796 20.4136 15.8657 19.6612 16.4739 19.1576H9.90785C10.5161 19.6612 10.9022 20.4136 10.9022 21.2543C10.9022 22.7708 9.64578 24 8.09606 24C6.54635 24 5.2899 22.7708 5.2899 21.2543C5.2899 20.4136 5.67606 19.6612 6.28427 19.1576H5.6713C4.97638 19.1576 4.50883 18.6368 4.32218 18.1795C4.135 17.7209 4.10531 16.9935 4.71967 16.5573L4.73615 16.5456L6.16417 15.6648L4.57907 5.83094L3.92286 2.21673C3.84098 1.97786 3.67074 1.79626 3.4665 1.704L3.46775 1.70453C3.46775 1.70453 3.46479 1.70339 3.45791 1.70162C3.44815 1.69911 3.43312 1.696 3.41031 1.69274L0 1.20583L0.179796 0ZM5.92175 6.33946L6.31694 8.79117H10.3658V6.33946H5.92175ZM11.6111 6.33946V8.79117H15.2875V6.33946H11.6111ZM16.5328 6.33946V8.79117H22.0871L22.7114 7.41284C22.7438 7.34137 22.7564 7.27452 22.7545 7.21756C22.7387 6.74332 22.6654 6.55108 22.6019 6.47114C22.5741 6.43619 22.4871 6.33946 22.08 6.33946H16.5328ZM15.2875 10.0098H11.6111V11.9572H15.2875V10.0098ZM16.5328 11.9572V10.0098H21.5738L20.7805 11.9572H16.5328ZM15.2875 13.1758H11.6111V15.0659L15.2875 14.8424V13.1758ZM16.5328 14.7666V13.1758H20.2842L19.9452 14.0079L19.9387 14.0277C19.8221 14.3827 19.4825 14.608 19.162 14.608H19.1427L16.5328 14.7666ZM10.3658 15.1416V13.1758H7.0237L7.36992 15.3237L10.3658 15.1416ZM6.82727 11.9572H10.3658V10.0098H6.51336L6.82727 11.9572ZM8.09606 19.7273C7.23395 19.7273 6.53522 20.4111 6.53522 21.2543C6.53522 22.0976 7.23395 22.7814 8.09606 22.7814C8.95817 22.7814 9.6569 22.0976 9.6569 21.2543C9.6569 20.4111 8.95817 19.7273 8.09606 19.7273ZM18.2857 19.7273C17.4236 19.7273 16.7249 20.4111 16.7249 21.2543C16.7249 22.0976 17.4236 22.7814 18.2857 22.7814C19.1478 22.7814 19.8466 22.0976 19.8466 21.2543C19.8466 20.4111 19.1478 19.7273 18.2857 19.7273Z" fill="#C4C4C4"/>
<path d="M6.53522 21.2543C6.53522 20.4111 7.23395 19.7273 8.09606 19.7273C8.95817 19.7273 9.6569 20.4111 9.6569 21.2543C9.6569 22.0976 8.95817 22.7814 8.09606 22.7814C7.23395 22.7814 6.53522 22.0976 6.53522 21.2543Z" fill="#C4C4C4"/>
<path d="M16.7249 21.2543C16.7249 20.4111 17.4236 19.7273 18.2857 19.7273C19.1478 19.7273 19.8466 20.4111 19.8466 21.2543C19.8466 22.0976 19.1478 22.7814 18.2857 22.7814C17.4236 22.7814 16.7249 22.0976 16.7249 21.2543Z" fill="#C4C4C4"/>
</svg>
