<svg width="24" height="24" viewBox="0 0 24 24" fill="none" xmlns="http://www.w3.org/2000/svg">
<path fill-rule="evenodd" clip-rule="evenodd" d="M12.9834 5.9075H5.4237L4.86689 2.84955L4.85696 2.81723C4.688 2.26732 4.29309 1.81086 3.7644 1.57271C3.62274 1.5089 3.48558 1.48143 3.38153 1.46662L0.597275 1.07023C0.324321 1.03137 0.0711115 1.21955 0.0304494 1.49148L0.00555174 1.65798C-0.0354684 1.9323 0.155273 2.1875 0.430629 2.2267L3.20873 2.62221C3.23065 2.62533 3.2451 2.62831 3.25448 2.63072C3.25985 2.6321 3.26363 2.6334 3.26363 2.6334C3.45952 2.72194 3.62276 2.89579 3.70133 3.12436L4.33201 6.58799L5.85543 16.0121L4.48297 16.8562L4.46713 16.8674C3.87668 17.2855 3.90522 17.9825 4.08511 18.422C4.2645 18.8602 4.71385 19.3594 5.38173 19.3594H5.97085C5.38631 19.842 5.01518 20.5631 5.01518 21.3687C5.01518 22.822 6.22272 24 7.71213 24C9.20154 24 10.4091 22.822 10.4091 21.3687C10.4091 20.5631 10.038 19.842 9.45341 19.3594H15.764C15.1794 19.842 14.8083 20.5631 14.8083 21.3687C14.8083 22.822 16.0158 24 17.5052 24C18.9946 24 20.2022 22.822 20.2022 21.3687C20.2022 20.5631 19.8311 19.842 19.2465 19.3594H19.5212C19.7981 19.3594 20.0226 19.1355 20.0226 18.8594V18.6915C20.0226 18.4154 19.7981 18.1915 19.5212 18.1915H5.38169C5.38169 18.1915 5.35789 18.1916 5.31669 18.1581C5.27289 18.1224 5.22686 18.0628 5.1966 17.9888C5.16595 17.914 5.1635 17.8546 5.16857 17.8242C5.16936 17.8195 5.17023 17.816 5.17096 17.8135L6.69769 16.8745L18.3678 16.167C19.1934 16.1582 19.955 15.6148 20.2264 14.8212L22.0997 10.2353L22.5746 9.18979C22.0248 9.79546 21.3416 10.2785 20.5712 10.5927H20.6653L19.9029 12.459H15.8205V10.5927H16.3973C15.7293 10.3203 15.1269 9.92097 14.6202 9.42487H11.0904V7.07532H13.198C13.1911 7.05217 13.1843 7.02896 13.1777 7.00569C13.0819 6.66923 13.0173 6.31964 12.9875 5.96024C12.986 5.94268 12.9846 5.9251 12.9834 5.9075ZM5.62244 7.07532L6.00225 9.42487H9.89353V7.07532H5.62244ZM14.6237 10.5927H11.0904V12.459H14.6237V10.5927ZM14.6237 13.6268H11.0904V15.4381L14.6237 15.2239V13.6268ZM15.8205 15.1514V13.6268H19.4259L19.1002 14.4242L19.0939 14.4432C18.9818 14.7834 18.6555 14.9993 18.3474 14.9993H18.3288L15.8205 15.1514ZM9.89353 15.5107V13.6268H6.6815L7.01424 15.6852L9.89353 15.5107ZM6.49272 12.459H9.89353V10.5927H6.19103L6.49272 12.459Z" fill="#C4C4C4"/>
<path fill-rule="evenodd" clip-rule="evenodd" d="M20.5712 10.5927C21.3416 10.2785 22.0248 9.79546 22.5746 9.18979C23.4605 8.21401 24 6.91984 24 5.5C24 2.46243 21.5305 0 18.4842 0C15.4379 0 12.9684 2.46243 12.9684 5.5C12.9684 5.63052 12.973 5.75998 12.982 5.88823L12.9834 5.9075C12.9846 5.9251 12.986 5.94268 12.9875 5.96024C13.0173 6.31964 13.0819 6.66923 13.1777 7.00569C13.1843 7.02896 13.1911 7.05217 13.198 7.07532C13.468 7.9774 13.9639 8.78234 14.6202 9.42487C15.1269 9.92097 15.7293 10.3203 16.3973 10.5927C17.041 10.8553 17.7457 11 18.4842 11C19.2228 11 19.9274 10.8553 20.5712 10.5927ZM17.2306 4.75C17.5076 4.75 17.7321 4.52614 17.7321 4.25V2.5C17.7321 2.22386 17.9566 2 18.2335 2H18.7349C19.0119 2 19.2364 2.22386 19.2364 2.5V4.25C19.2364 4.52614 19.4609 4.75 19.7378 4.75H21.4928C21.7698 4.75 21.9943 4.97386 21.9943 5.25V5.75C21.9943 6.02614 21.7698 6.25 21.4928 6.25H19.7378C19.4609 6.25 19.2364 6.47386 19.2364 6.75V8.5C19.2364 8.77614 19.0119 9 18.7349 9H18.2335C17.9566 9 17.7321 8.77614 17.7321 8.5V6.75C17.7321 6.47386 17.5076 6.25 17.2306 6.25H15.4756C15.1987 6.25 14.9742 6.02614 14.9742 5.75V5.25C14.9742 4.97386 15.1987 4.75 15.4756 4.75H17.2306Z" fill="#C4C4C4"/>
</svg>
