<svg width="24" height="24" viewBox="0 0 24 24" fill="none" xmlns="http://www.w3.org/2000/svg">
<path fill-rule="evenodd" clip-rule="evenodd" d="M0.0379624 0.427548C0.0786246 0.154841 0.331834 -0.0338745 0.604788 0.00509669L3.53155 0.422967C3.64012 0.438468 3.78325 0.46721 3.93106 0.533985C4.48274 0.783207 4.89482 1.26087 5.07113 1.83634L5.08149 1.87016L5.66251 5.07022H22.0745C22.6749 5.07022 23.2216 5.21852 23.5837 5.67406C23.9099 6.0845 23.9823 6.62761 23.9992 7.1332C24.0078 7.39484 23.9491 7.64406 23.8495 7.86397L23.0636 9.59911L21.1088 14.3982C20.8256 15.2287 20.0308 15.7973 19.1694 15.8065L6.99188 16.5469L5.39878 17.5295C5.39801 17.5321 5.3971 17.5358 5.39628 17.5407C5.391 17.5725 5.39355 17.6347 5.42553 17.713C5.45711 17.7904 5.50514 17.8528 5.55084 17.8901C5.59384 17.9252 5.61867 17.9251 5.61867 17.9251H20.3947C20.6716 17.9251 20.8961 18.1496 20.8961 18.4266V18.6458C20.8961 18.9227 20.6716 19.1472 20.3947 19.1472H20.0863C20.6963 19.6523 21.0835 20.4069 21.0835 21.25C21.0835 22.7708 19.8235 24.0035 18.2693 24.0035C16.7152 24.0035 15.4551 22.7708 15.4551 21.25C15.4551 20.4069 15.8424 19.6523 16.4523 19.1472H9.86742C10.4774 19.6523 10.8646 20.4069 10.8646 21.25C10.8646 22.7708 9.6046 24.0035 8.05043 24.0035C6.49627 24.0035 5.23622 22.7708 5.23622 21.25C5.23622 20.4069 5.62349 19.6523 6.23344 19.1472H5.61871C4.9218 19.1472 4.4529 18.6249 4.26572 18.1663C4.07801 17.7064 4.04823 16.977 4.66435 16.5394L4.68088 16.5277L6.113 15.6444L4.52335 5.78233L3.86526 2.15775C3.78314 1.91819 3.61241 1.73608 3.40759 1.64355L3.40884 1.64408C3.40884 1.64408 3.40588 1.64294 3.39898 1.64116C3.38919 1.63864 3.37411 1.63552 3.35123 1.63226L0.430629 1.21527C0.155273 1.17595 -0.0354684 0.920023 0.00555174 0.644915L0.0379624 0.427548ZM5.86988 6.29231L6.26621 8.75105H10.3267V6.29231H5.86988ZM11.5756 6.29231V8.75105H15.2625V6.29231H11.5756ZM16.5113 6.29231V8.75105H22.0816L22.7077 7.36876C22.7402 7.29709 22.7528 7.23006 22.7509 7.17293C22.7351 6.69732 22.6616 6.50454 22.5979 6.42437C22.57 6.38932 22.4828 6.29231 22.0745 6.29231H16.5113ZM15.2625 9.97314H11.5756V11.9262H15.2625V9.97314ZM16.5113 11.9262V9.97314H21.5668L20.7713 11.9262H16.5113ZM15.2625 13.1483H11.5756V15.0438L15.2625 14.8196V13.1483ZM16.5113 14.7437V13.1483H20.2735L19.9336 13.9828L19.9271 14.0026C19.8101 14.3586 19.4696 14.5845 19.1481 14.5845H19.1287L16.5113 14.7437ZM10.3267 15.1197V13.1483H6.97499L7.3222 15.3023L10.3267 15.1197ZM6.778 11.9262H10.3267V9.97314H6.46319L6.778 11.9262ZM8.05043 19.7185C7.18585 19.7185 6.48511 20.4043 6.48511 21.25C6.48511 22.0957 7.18585 22.7814 8.05043 22.7814C8.91502 22.7814 9.61575 22.0957 9.61575 21.25C9.61575 20.4043 8.91502 19.7185 8.05043 19.7185ZM18.2693 19.7185C17.4047 19.7185 16.704 20.4043 16.704 21.25C16.704 22.0957 17.4047 22.7814 18.2693 22.7814C19.1339 22.7814 19.8346 22.0957 19.8346 21.25C19.8346 20.4043 19.1339 19.7185 18.2693 19.7185Z" fill="#C4C4C4"/>
<path d="M6.48511 21.25C6.48511 20.4043 7.18585 19.7185 8.05043 19.7185C8.91502 19.7185 9.61575 20.4043 9.61575 21.25C9.61575 22.0957 8.91502 22.7814 8.05043 22.7814C7.18585 22.7814 6.48511 22.0957 6.48511 21.25Z" fill="#C4C4C4"/>
<path d="M16.704 21.25C16.704 20.4043 17.4047 19.7185 18.2693 19.7185C19.1339 19.7185 19.8346 20.4043 19.8346 21.25C19.8346 22.0957 19.1339 22.7814 18.2693 22.7814C17.4047 22.7814 16.704 22.0957 16.704 21.25Z" fill="#C4C4C4"/>
</svg>
