<svg width="24" height="24" viewBox="0 0 24 24" fill="none" xmlns="http://www.w3.org/2000/svg">
<path fill-rule="evenodd" clip-rule="evenodd" d="M13.5736 1.18927C13.1237 -0.396427 10.8763 -0.396423 10.4264 1.18928L9.81026 3.3609C9.52211 4.37657 8.36155 4.85728 7.43961 4.34286L5.46838 3.24294C4.02901 2.4398 2.4398 4.02901 3.24294 5.46838L4.34286 7.43961C4.85728 8.36155 4.37656 9.52211 3.3609 9.81026L1.18927 10.4264C-0.396427 10.8763 -0.396423 13.1237 1.18928 13.5736L3.3609 14.1897C4.37657 14.4779 4.85728 15.6385 4.34286 16.5604L3.24294 18.5316C2.4398 19.971 4.02901 21.5602 5.46838 20.7571L7.43961 19.6571C8.36155 19.1427 9.52211 19.6234 9.81026 20.6391L10.4264 22.8107C10.8763 24.3964 13.1237 24.3964 13.5736 22.8107L14.1897 20.6391C14.4779 19.6234 15.6385 19.1427 16.5604 19.6571L18.5316 20.7571C19.971 21.5602 21.5602 19.971 20.7571 18.5316L19.6571 16.5604C19.1427 15.6384 19.6234 14.4779 20.6391 14.1897L22.8107 13.5736C24.3964 13.1237 24.3964 10.8763 22.8107 10.4264L20.6391 9.81026C19.6234 9.52211 19.1427 8.36155 19.6571 7.43961L20.7571 5.46838C21.5602 4.02901 19.971 2.4398 18.5316 3.24294L16.5604 4.34286C15.6384 4.85728 14.4779 4.37656 14.1897 3.3609L13.5736 1.18927ZM12 18.5429C15.6136 18.5429 18.5429 15.6136 18.5429 12C18.5429 8.38645 15.6136 5.45709 12 5.45709C8.38645 5.45709 5.45709 8.38645 5.45709 12C5.45709 15.6136 8.38645 18.5429 12 18.5429Z" fill="#C4C4C4"/>
<path d="M16.9072 12C16.9072 14.7102 14.7102 16.9072 12 16.9072C9.28984 16.9072 7.09281 14.7102 7.09281 12C7.09281 9.28984 9.28984 7.09281 12 7.09281C14.7102 7.09281 16.9072 9.28984 16.9072 12Z" fill="#C4C4C4"/>
</svg>
