<svg width="24" height="24" viewBox="0 0 24 24" fill="none" xmlns="http://www.w3.org/2000/svg">
<path d="M0.14902 4.21927C-0.0496715 4.02057 -0.0496709 3.69843 0.14902 3.49974L3.49974 0.149018C3.69844 -0.049673 4.02058 -0.0496727 4.21927 0.149019L11.6402 7.56999C11.8389 7.76868 12.1611 7.76868 12.3598 7.56999L19.7807 0.149021C19.9794 -0.0496703 20.3016 -0.0496705 20.5003 0.149021L23.851 3.49974C24.0497 3.69844 24.0497 4.02058 23.851 4.21927L16.43 11.6402C16.2313 11.8389 16.2313 12.1611 16.43 12.3598L23.851 19.7807C24.0497 19.9794 24.0497 20.3016 23.851 20.5003L20.5003 23.851C20.3016 24.0497 19.9794 24.0497 19.7807 23.851L12.3598 16.43C12.1611 16.2313 11.8389 16.2313 11.6402 16.43L4.21927 23.851C4.02057 24.0497 3.69843 24.0497 3.49974 23.851L0.149018 20.5003C-0.0496731 20.3016 -0.0496726 19.9794 0.149019 19.7807L7.56999 12.3598C7.76868 12.1611 7.76868 11.8389 7.56999 11.6402L0.14902 4.21927Z" fill="#C4C4C4"/>
</svg>
