<svg width="24" height="24" viewBox="0 0 24 24" fill="none" xmlns="http://www.w3.org/2000/svg">
<path fill-rule="evenodd" clip-rule="evenodd" d="M12.8 24C12.9105 24 13 23.9105 13 23.8V22.874C14.7252 22.4299 16 20.8638 16 19C16 17.1362 14.7252 15.5701 13 15.126V0.200001C13 0.0895443 12.9105 0 12.8 0H11.2C11.0895 0 11 0.0895443 11 0.200001V15.126C9.27477 15.5701 8 17.1362 8 19C8 20.8638 9.27477 22.4299 11 22.874V23.8C11 23.9105 11.0895 24 11.2 24H12.8ZM12 17C10.8954 17 10 17.8954 10 19C10 20.1046 10.8954 21 12 21C13.1046 21 14 20.1046 14 19C14 17.8954 13.1046 17 12 17Z" fill="#C4C4C4"/>
<path fill-rule="evenodd" clip-rule="evenodd" d="M19.2 0C19.0895 0 19 0.0895443 19 0.200001V6.12602C17.2748 6.57006 16 8.13616 16 10C16 11.8638 17.2748 13.4299 19 13.874V23.8C19 23.9105 19.0895 24 19.2 24H20.8C20.9105 24 21 23.9105 21 23.8V13.874C22.7252 13.4299 24 11.8638 24 10C24 8.13616 22.7252 6.57006 21 6.12602V0.2C21 0.0895431 20.9105 0 20.8 0H19.2ZM20 12C21.1046 12 22 11.1046 22 10C22 8.89543 21.1046 8 20 8C18.8954 8 18 8.89543 18 10C18 11.1046 18.8954 12 20 12Z" fill="#C4C4C4"/>
<path fill-rule="evenodd" clip-rule="evenodd" d="M3.2 0C3.08954 0 3 0.0895443 3 0.200001V1.12602C1.27477 1.57006 0 3.13616 0 5C0 6.86384 1.27477 8.42994 3 8.87398V23.8C3 23.9105 3.08954 24 3.2 24H4.8C4.91046 24 5 23.9105 5 23.8V8.87398C6.72523 8.42994 8 6.86384 8 5C8 3.13616 6.72523 1.57006 5 1.12602V0.2C5 0.0895431 4.91046 0 4.8 0H3.2ZM4 7C5.10457 7 6 6.10457 6 5C6 3.89543 5.10457 3 4 3C2.89543 3 2 3.89543 2 5C2 6.10457 2.89543 7 4 7Z" fill="#C4C4C4"/>
</svg>
