<svg width="24" height="24" viewBox="0 0 24 24" fill="none" xmlns="http://www.w3.org/2000/svg">
<path fill-rule="evenodd" clip-rule="evenodd" d="M20.6175 3.38245C21.1275 3.89238 21.1275 4.71914 20.6175 5.22907L5.22906 20.6176C4.71913 21.1275 3.89237 21.1275 3.38244 20.6176C2.87252 20.1076 2.87251 19.2809 3.38244 18.7709L18.7709 3.38245C19.2809 2.87252 20.1076 2.87252 20.6175 3.38245Z" fill="#C4C4C4"/>
<path d="M12 3C6.01905 3 1.04322 6.87977 0 12C0.488642 14.3983 1.84009 16.5245 3.75351 18.1073L5.38758 16.4732C3.97194 15.2972 2.943 13.7486 2.49225 12C3.49671 8.10344 7.37226 5.2 12 5.2C13.3949 5.2 14.7215 5.4638 15.9217 5.93908L17.6247 4.23604C15.9416 3.44634 14.0286 3 12 3Z" fill="#C4C4C4"/>
<path d="M20.2465 5.89275L18.6124 7.52682C20.0281 8.70279 21.057 10.2514 21.5078 12C20.5033 15.8966 16.6277 18.8 12 18.8C10.6051 18.8 9.27851 18.5362 8.07831 18.0609L6.37527 19.764C8.05839 20.5537 9.97138 21 12 21C17.981 21 22.9568 17.1202 24 12C23.5114 9.60168 22.1599 7.47552 20.2465 5.89275Z" fill="#C4C4C4"/>
<path d="M11.2371 14.9021C11.4807 14.966 11.7364 15 12 15C13.6569 15 15 13.6569 15 12C15 11.7364 14.966 11.4807 14.9021 11.2371L11.2371 14.9021Z" fill="#C4C4C4"/>
<path d="M12.7629 9.09787C12.5193 9.03401 12.2636 9 12 9C10.3431 9 9 10.3431 9 12C9 12.2636 9.034 12.5193 9.09786 12.7629L12.7629 9.09787Z" fill="#C4C4C4"/>
</svg>
