<svg width="24" height="24" viewBox="0 0 24 24" fill="none" xmlns="http://www.w3.org/2000/svg">
<path fill-rule="evenodd" clip-rule="evenodd" d="M0 12C1.04322 6.87976 6.01905 3 12 3C17.981 3 22.9568 6.87976 24 12C22.9568 17.1202 17.981 21 12 21C6.01905 21 1.04322 17.1202 0 12ZM2.49225 12C3.49671 8.10343 7.37226 5.2 12 5.2C16.6277 5.2 20.5033 8.10343 21.5078 12C20.5033 15.8966 16.6277 18.8 12 18.8C7.37226 18.8 3.49671 15.8966 2.49225 12Z" fill="#C4C4C4"/>
<path d="M15 12C15 13.6569 13.6569 15 12 15C10.3431 15 9 13.6569 9 12C9 10.3431 10.3431 9 12 9C13.6569 9 15 10.3431 15 12Z" fill="#C4C4C4"/>
</svg>
