<svg width="24" height="24" viewBox="0 0 24 24" fill="none" xmlns="http://www.w3.org/2000/svg">
<path fill-rule="evenodd" clip-rule="evenodd" d="M0 3.55651C0 3.47635 0.0470388 3.40379 0.119836 3.37165L7.71984 0.0171403C7.85197 -0.041183 8 0.0564875 8 0.201998V2.71833C8 2.82977 8.08954 2.92011 8.2 2.92011H14.8C14.9105 2.92011 15 3.01045 15 3.12189V20.8781C15 20.9896 14.9105 21.0799 14.8 21.0799H8.2C8.08954 21.0799 8 21.1702 8 21.2817V23.798C8 23.9435 7.85197 24.0412 7.71984 23.9829L0.119836 20.6283C0.0470389 20.5962 0 20.5237 0 20.4435V3.55651ZM13 5.13964C13 5.0282 12.9105 4.93786 12.8 4.93786H8.2C8.08954 4.93786 8 5.0282 8 5.13964V18.8604C8 18.9718 8.08954 19.0621 8.2 19.0621H12.8C12.9105 19.0621 13 18.9718 13 18.8604V5.13964Z" fill="#C4C4C4"/>
<path d="M23.8 8.97337C23.9105 8.97337 24 9.06371 24 9.17514V14.8249C24 14.9363 23.9105 15.0266 23.8 15.0266H17.7C17.5895 15.0266 17.5 15.117 17.5 15.2284V19.0621C17.5 19.3279 17.2401 19.5011 17.015 19.3737C17.0049 19.3681 16.9957 19.3609 16.9871 19.3531L9.21113 12.3127C9.20372 12.306 9.19572 12.3 9.18766 12.294C9.00009 12.1562 9.0042 11.8393 9.2 11.7022L17 4.6352C17.2 4.48034 17.5 4.6608 17.5 4.93786V8.77159C17.5 8.88303 17.5895 8.97337 17.7 8.97337H23.8Z" fill="#C4C4C4"/>
</svg>
