<svg width="24" height="24" viewBox="0 0 24 24" fill="none" xmlns="http://www.w3.org/2000/svg">
<path fill-rule="evenodd" clip-rule="evenodd" d="M0 3.63081C0 3.55135 0.0470388 3.47942 0.119836 3.44757L7.71984 0.122573C7.85197 0.0647625 8 0.161574 8 0.305804V2.8C8 2.91046 8.08954 3 8.2 3H14.8C14.9105 3 15 3.08954 15 3.2V20.8C15 20.9105 14.9105 21 14.8 21H8.2C8.08954 21 8 21.0895 8 21.2V23.6942C8 23.8384 7.85197 23.9352 7.71984 23.8774L0.119836 20.5524C0.0470389 20.5206 0 20.4487 0 20.3692V3.63081ZM13 5.2C13 5.08954 12.9105 5 12.8 5H8.2C8.08954 5 8 5.08954 8 5.2V18.8C8 18.9105 8.08954 19 8.2 19H12.8C12.9105 19 13 18.9105 13 18.8V5.2Z" fill="#C4C4C4"/>
<path d="M23.8 9C23.9105 9 24 9.08954 24 9.2V14.8C24 14.9105 23.9105 15 23.8 15H17.7C17.5895 15 17.5 15.0895 17.5 15.2V19C17.5 19.2634 17.2401 19.4351 17.015 19.3089C17.0049 19.3032 16.9957 19.2961 16.9871 19.2884L9.21115 12.31C9.20373 12.3033 9.19572 12.2973 9.18765 12.2915C9.00009 12.1549 9.0042 11.8407 9.2 11.7048L17 4.7C17.2 4.5465 17.5 4.72537 17.5 5V8.8C17.5 8.91046 17.5895 9 17.7 9H23.8Z" fill="#C4C4C4"/>
</svg>
