<svg width="24" height="24" viewBox="0 0 24 24" fill="none" xmlns="http://www.w3.org/2000/svg">
<path fill-rule="evenodd" clip-rule="evenodd" d="M0 3.5L8 0V3H15V21H8V24L0 20.5V3.5ZM13 5H8V19H13V5Z" fill="#C4C4C4"/>
<path d="M9.25 14.9947C9.13954 14.9947 9.05 14.9052 9.05 14.7947V9.1947C9.05 9.08424 9.13954 8.9947 9.25 8.9947H15.35C15.4605 8.9947 15.55 8.90516 15.55 8.7947V4.9947C15.55 4.73127 15.8099 4.55957 16.035 4.68583C16.0451 4.69147 16.0543 4.69857 16.0629 4.70627L23.8389 11.6847C23.8463 11.6914 23.8543 11.6974 23.8623 11.7032C24.0499 11.8398 24.0458 12.154 23.85 12.2899L16.05 19.2947C15.85 19.4482 15.55 19.2693 15.55 18.9947V15.1947C15.55 15.0842 15.4605 14.9947 15.35 14.9947H9.25Z" fill="#C4C4C4"/>
</svg>
