<svg width="24" height="24" viewBox="0 0 24 24" fill="none" xmlns="http://www.w3.org/2000/svg">
<path fill-rule="evenodd" clip-rule="evenodd" d="M0 3.55651C0 3.47635 0.0470388 3.40379 0.119836 3.37165L7.71984 0.0171403C7.85197 -0.041183 8 0.0564875 8 0.201998V2.71833C8 2.82977 8.08954 2.92011 8.2 2.92011H14.8C14.9105 2.92011 15 3.01045 15 3.12189V20.8781C15 20.9896 14.9105 21.0799 14.8 21.0799H8.2C8.08954 21.0799 8 21.1702 8 21.2817V23.798C8 23.9435 7.85197 24.0412 7.71984 23.9829L0.119836 20.6283C0.0470389 20.5962 0 20.5237 0 20.4435V3.55651ZM13 5.13964C13 5.0282 12.9105 4.93786 12.8 4.93786H8.2C8.08954 4.93786 8 5.0282 8 5.13964V18.8604C8 18.9718 8.08954 19.0621 8.2 19.0621H12.8C12.9105 19.0621 13 18.9718 13 18.8604V5.13964Z" fill="#C4C4C4"/>
<path d="M9.25 15.0213C9.13954 15.0213 9.05 14.9309 9.05 14.8195V9.1698C9.05 9.05836 9.13954 8.96802 9.25 8.96802H15.35C15.4605 8.96802 15.55 8.87768 15.55 8.76625V4.93251C15.55 4.66675 15.8099 4.49352 16.035 4.6209C16.0451 4.62659 16.0543 4.63376 16.0629 4.64153L23.8389 11.6819C23.8463 11.6886 23.8543 11.6947 23.8623 11.7006C24.0499 11.8384 24.0458 12.1554 23.85 12.2924L16.05 19.3594C15.85 19.5143 15.55 19.3339 15.55 19.0568V15.2231C15.55 15.1116 15.4605 15.0213 15.35 15.0213H9.25Z" fill="#C4C4C4"/>
</svg>
