<svg width="24" height="24" viewBox="0 0 24 24" fill="none" xmlns="http://www.w3.org/2000/svg">
<path d="M11.26 2.898L12.0008 3.7148L12.7415 2.898C13.8792 1.64347 15.3557 1.00166 16.9407 1.00166C18.5145 1.00166 20.0461 1.69013 21.1916 2.95332C22.3402 4.21975 23 5.95659 23 7.78564C23 9.62556 22.385 11.3038 21.2433 12.5626L12.0008 22.7541L2.75819 12.5626C1.61631 11.3035 1 9.62358 1 7.78398C1 5.95493 1.65984 4.21809 2.80836 2.95166C3.95394 1.68847 5.48554 1 7.05927 1C8.64394 1 10.122 1.6432 11.26 2.898Z" stroke="black" stroke-width="2"/>
</svg>
