<svg width="24" height="24" viewBox="0 0 24 24" fill="none" xmlns="http://www.w3.org/2000/svg">
<path d="M21.9841 13.2344L12.3694 23.8361C12.1713 24.0546 11.8303 24.0546 11.6321 23.8361L2.01744 13.2344C0.693574 11.7746 -2.12025e-07 9.84842 0 7.78398C2.12025e-07 5.71954 0.743742 3.73965 2.06761 2.27987C3.39148 0.820095 5.18703 -7.79304e-08 7.05927 0C8.9315 7.79304e-08 10.6769 0.766439 12.0008 2.22622C13.3246 0.76644 15.0685 0.00166242 16.9407 0.00166265C18.813 0.00166289 20.6085 0.821758 21.9324 2.28154C23.2563 3.74132 24 5.7212 24 7.78564C24 9.85008 23.3079 11.7746 21.9841 13.2344Z" fill="#C4C4C4"/>
</svg>
