<svg width="24" height="24" viewBox="0 0 24 24" fill="none" xmlns="http://www.w3.org/2000/svg">
<path d="M21.9841 13.102L12.0008 24L2.01744 13.102C0.693574 11.6568 -2.12025e-07 9.74985 0 7.70607C2.12025e-07 5.66229 0.743742 3.70222 2.06761 2.25706C3.39148 0.811887 5.18703 -7.71504e-08 7.05927 0C8.9315 7.71505e-08 10.6769 0.758768 12.0008 2.20394C13.3246 0.758769 15.0685 0.00164578 16.9407 0.00164601C18.813 0.00164624 20.6085 0.813534 21.9324 2.2587C23.2563 3.70387 24 5.66394 24 7.70772C24 9.7515 23.3079 11.6568 21.9841 13.102Z" fill="#C4C4C4"/>
</svg>
