<svg width="24" height="24" viewBox="0 0 24 24" fill="none" xmlns="http://www.w3.org/2000/svg">
<path fill-rule="evenodd" clip-rule="evenodd" d="M16 1H8V2V3V4H16V3V1ZM8 0C7.44772 0 7 0.447715 7 1V2V3V4C7 4.55228 7.44772 5 8 5H16C16.5523 5 17 4.55228 17 4V3V2V1C17 0.447715 16.5523 0 16 0H8Z" fill="#C4C4C4"/>
<path d="M3 4C3 3.44772 3.44771 3 4 3H7V2H4C2.89543 2 2 2.89543 2 4V22C2 23.1046 2.89543 24 4 24H20C21.1046 24 22 23.1046 22 22V4C22 2.89543 21.1046 2 20 2H17V3H20C20.5523 3 21 3.44772 21 4V22C21 22.5523 20.5523 23 20 23H4C3.44772 23 3 22.5523 3 22V4Z" fill="#C4C4C4"/>
<path d="M9 2.2C9 2.08954 9.08954 2 9.2 2H14.8C14.9105 2 15 2.08954 15 2.2V2.8C15 2.91046 14.9105 3 14.8 3H9.2C9.08954 3 9 2.91046 9 2.8V2.2Z" fill="#C4C4C4"/>
<path d="M5 7H19V8H5V7Z" fill="#C4C4C4"/>
<path d="M5 10H19V11H5V10Z" fill="#C4C4C4"/>
<path d="M5 13H19V14H5V13Z" fill="#C4C4C4"/>
<path d="M5 16H19V17H5V16Z" fill="#C4C4C4"/>
<path d="M5 19H13V20H5V19Z" fill="#C4C4C4"/>
</svg>
