<svg width="24" height="24" viewBox="0 0 24 24" fill="none" xmlns="http://www.w3.org/2000/svg">
<path d="M20.2749 5.06307C20.3995 5.12744 20.5583 5.09179 20.62 4.97903C21.0245 4.2397 21.1106 3.38726 20.8565 2.5798C20.5791 1.69822 19.9189 0.94247 19.0213 0.478796C18.1237 0.0151212 17.0621 -0.118492 16.07 0.10735C15.1614 0.314205 14.3793 0.8071 13.8659 1.49022C13.7876 1.5944 13.8325 1.73523 13.9571 1.7996L20.2749 5.06307Z" fill="#C4C4C4"/>
<path d="M12.9694 2.86407C13.0395 2.75536 13.1974 2.71941 13.322 2.78378L19.6398 6.04725C19.7644 6.11162 19.8086 6.25193 19.7384 6.36064L10.466 20.7297C10.3959 20.8384 10.238 20.8743 10.1134 20.81L3.79554 17.5465C3.67093 17.4821 3.62678 17.3418 3.69693 17.2331L12.9694 2.86407Z" fill="#C4C4C4"/>
<path d="M4.09496 23.9824C3.93696 24.0408 3.75645 23.9475 3.73394 23.7959L3.00234 18.8689C2.97452 18.6815 3.20015 18.5512 3.38608 18.6472L9.25262 21.6776C9.43855 21.7736 9.42519 22.0136 9.2299 22.0858L4.09496 23.9824Z" fill="#C4C4C4"/>
</svg>
