<svg width="24" height="24" viewBox="0 0 24 24" fill="none" xmlns="http://www.w3.org/2000/svg">
<path d="M9 0.2C9 0.089543 9.08954 0 9.2 0H14.8C14.9105 0 15 0.0895431 15 0.2V8.8C15 8.91046 15.0895 9 15.2 9H23.8C23.9105 9 24 9.08954 24 9.2V14.8C24 14.9105 23.9105 15 23.8 15H15.2C15.0895 15 15 15.0895 15 15.2V23.8C15 23.9105 14.9105 24 14.8 24H9.2C9.08954 24 9 23.9105 9 23.8V15.2C9 15.0895 8.91046 15 8.8 15H0.2C0.089543 15 0 14.9105 0 14.8V9.2C0 9.08954 0.0895431 9 0.2 9H8.8C8.91046 9 9 8.91046 9 8.8V0.2Z" fill="#C4C4C4"/>
</svg>
