<svg width="24" height="24" viewBox="0 0 24 24" fill="none" xmlns="http://www.w3.org/2000/svg">
<g clip-path="url(#clip0)">
<rect width="24" height="24" rx="0.5" fill="white"/>
<path d="M9.89934 20.5C10.0102 20.5 10.0974 20.4 10.0882 20.2834L9.40921 11.6834C9.40103 11.5797 9.31894 11.5 9.22039 11.5H8.65329C8.54244 11.5 8.45526 11.6 8.46447 11.7166L9.14342 20.3166C9.1516 20.4203 9.23369 20.5 9.33223 20.5H9.89934Z" fill="#C4C4C4"/>
<path d="M15.048 20.5C14.9371 20.5 14.85 20.4 14.8592 20.2834L15.5363 11.6834C15.5444 11.5798 15.6265 11.5 15.7251 11.5H16.2975C16.4084 11.5 16.4956 11.6001 16.4863 11.7168L15.7986 20.3168C15.7903 20.4204 15.7083 20.5 15.6098 20.5H15.048Z" fill="#C4C4C4"/>
<path fill-rule="evenodd" clip-rule="evenodd" d="M12.1895 20.5C12.0848 20.5 12 20.4105 12 20.3V11.7C12 11.5895 12.0848 11.5 12.1895 11.5H12.7579C12.8625 11.5 12.9474 11.5895 12.9474 11.7V20.3C12.9474 20.4105 12.8625 20.5 12.7579 20.5H12.1895Z" fill="#C4C4C4"/>
<path fill-rule="evenodd" clip-rule="evenodd" d="M4.1641 8C4.03517 8 3.93489 8.11782 3.94863 8.25292L5.34451 21.9578C5.4626 23.1193 6.39076 24 7.49923 24H17.4487C18.5571 24 19.4872 23.1193 19.6053 21.9578L20.9987 8.25292C21.0125 8.11782 20.912 8 20.7831 8H4.1641ZM5.98156 9.71429C5.85262 9.71429 5.75235 9.83211 5.76609 9.96721L6.80597 20.2435C6.92406 21.405 7.85223 22.2857 8.96069 22.2857H15.9869C17.0954 22.2857 18.0255 21.405 18.1436 20.2435L19.1884 9.96721C19.2021 9.83211 19.1016 9.71429 18.9727 9.71429H5.98156Z" fill="#C4C4C4"/>
<path fill-rule="evenodd" clip-rule="evenodd" d="M20.3655 1.29372C20.4967 1.25949 20.6282 1.33115 20.6618 1.45308L20.9922 2.66844C21.0258 2.79037 20.9473 2.9168 20.8161 2.95103L3.63447 7.4366C3.50325 7.47084 3.37177 7.39918 3.33817 7.27725L3.00776 6.06189C2.97417 5.93996 3.05269 5.81353 3.18391 5.7793L7.02132 4.77656C6.51737 2.94761 8.23623 0.909968 10.8605 0.225358C13.3784 -0.431497 15.8149 0.395851 16.4535 2.07942C16.4984 2.19789 16.631 2.26962 16.7622 2.23539L20.3655 1.29372ZM14.5052 2.8242C14.6364 2.78997 14.7171 2.66149 14.6517 2.55203C14.5182 2.32861 14.2545 2.09461 13.7836 1.92233C13.1603 1.69432 12.2806 1.62971 11.3167 1.88116C10.3529 2.13261 9.62443 2.61673 9.20195 3.11757C8.88273 3.49599 8.77471 3.82696 8.77398 4.08539C8.77362 4.21201 8.90957 4.28397 9.04078 4.24974L14.5052 2.8242Z" fill="#C4C4C4"/>
</g>
<defs>
<clipPath id="clip0">
<rect width="24" height="24" rx="0.5" fill="white"/>
</clipPath>
</defs>
</svg>
