<svg width="24" height="24" viewBox="0 0 24 24" fill="none" xmlns="http://www.w3.org/2000/svg">
<path fill-rule="evenodd" clip-rule="evenodd" d="M9.56601 0C14.8492 0 19.132 4.28285 19.132 9.56601C19.132 11.7766 18.3822 13.8121 17.123 15.4319L24 22.309L22.309 24L15.4319 17.123C13.8121 18.3822 11.7766 19.132 9.56601 19.132C4.28285 19.132 0 14.8492 0 9.56601C0 4.28285 4.28285 0 9.56601 0ZM9.56601 16.7405C13.5284 16.7405 16.7405 13.5284 16.7405 9.56601C16.7405 5.60364 13.5284 2.3915 9.56601 2.3915C5.60364 2.3915 2.3915 5.60364 2.3915 9.56601C2.3915 13.5284 5.60364 16.7405 9.56601 16.7405Z" fill="#C4C4C4"/>
</svg>
