<svg width="24" height="24" viewBox="0 0 24 24" fill="none" xmlns="http://www.w3.org/2000/svg">
<path fill-rule="evenodd" clip-rule="evenodd" d="M9.64928 0C14.9784 0 19.2986 4.32013 19.2986 9.64928C19.2986 11.7194 18.6467 13.6372 17.537 15.2087C17.3904 15.4164 17.407 15.7012 17.5868 15.881L23.8523 22.1465C24.0492 22.3435 24.0492 22.6628 23.8523 22.8598L22.8598 23.8523C22.6628 24.0492 22.3435 24.0492 22.1465 23.8523L15.881 17.5868C15.7012 17.407 15.4164 17.3904 15.2087 17.537C13.6372 18.6467 11.7194 19.2986 9.64928 19.2986C4.32013 19.2986 0 14.9784 0 9.64928C0 4.32013 4.32013 0 9.64928 0ZM9.64928 16.8862C13.6461 16.8862 16.8862 13.6461 16.8862 9.64928C16.8862 5.65242 13.6461 2.41232 9.64928 2.41232C5.65242 2.41232 2.41232 5.65242 2.41232 9.64928C2.41232 13.6461 5.65242 16.8862 9.64928 16.8862Z" fill="#C4C4C4"/>
</svg>
