<svg width="24" height="24" viewBox="0 0 24 24" fill="none" xmlns="http://www.w3.org/2000/svg">
<path d="M11.7517 0.185406C11.8336 -0.0618012 12.1664 -0.0618022 12.2483 0.185405L15.0296 8.58931C15.0657 8.69837 15.1626 8.77231 15.2725 8.77466L23.7421 8.95593C23.9912 8.96127 24.0941 9.29376 23.8955 9.45188L17.1449 14.8271C17.0573 14.8968 17.0203 15.0164 17.0522 15.1269L19.5052 23.6429C19.5774 23.8934 19.3081 24.0989 19.1036 23.9494L12.1501 18.8675C12.0599 18.8016 11.9401 18.8016 11.8499 18.8675L4.89644 23.9494C4.69189 24.0989 4.42259 23.8934 4.49475 23.6429L6.94783 15.1269C6.97967 15.0164 6.94265 14.8968 6.85505 14.8271L0.104507 9.45188C-0.0940648 9.29376 0.0087986 8.96127 0.257936 8.95593L8.72747 8.77466C8.83737 8.77231 8.93427 8.69837 8.97037 8.58931L11.7517 0.185406Z" fill="#FFC100"/>
</svg>
