<svg width="24" height="24" viewBox="0 0 24 24" fill="none" xmlns="http://www.w3.org/2000/svg">
<path fill-rule="evenodd" clip-rule="evenodd" d="M12.2483 0.185405C12.1664 -0.0618022 11.8336 -0.0618012 11.7517 0.185406L8.97037 8.58931C8.93428 8.69837 8.83737 8.77231 8.72747 8.77466L0.257936 8.95593C0.00879858 8.96127 -0.0940648 9.29376 0.104507 9.45188L6.85505 14.8271C6.94265 14.8968 6.97967 15.0164 6.94783 15.1269L4.49475 23.6429C4.42259 23.8934 4.6919 24.0989 4.89644 23.9494L11.8499 18.8675C11.9401 18.8016 12.0599 18.8016 12.1501 18.8675L19.1036 23.9494C19.3081 24.0989 19.5774 23.8934 19.5052 23.6429L17.0522 15.1269C17.0203 15.0164 17.0573 14.8968 17.1449 14.8271L23.8955 9.45188C24.0941 9.29376 23.9912 8.96127 23.7421 8.95593L15.2725 8.77466C15.1626 8.77231 15.0657 8.69837 15.0296 8.58931L12.2483 0.185405ZM14.2461 9.88517C14.1445 9.88299 14.0553 9.81705 14.0234 9.72056L12.4679 5.01527C12.3823 4.75645 12 4.818 12 5.0906V16.4798C12 16.5563 12.0365 16.6282 12.0983 16.6734L16.6251 19.9856C16.8097 20.1206 17.0607 19.9454 16.9974 19.7255L15.4043 14.1888C15.3775 14.0955 15.4095 13.9953 15.4854 13.9348L19.8814 10.4304C20.057 10.2905 19.9614 10.0076 19.7369 10.0028L14.2461 9.88517Z" fill="#FFC100"/>
</svg>
