<svg width="24" height="24" viewBox="0 0 24 24" fill="none" xmlns="http://www.w3.org/2000/svg">
<path d="M13.1631 5.33844C13.5763 4.30052 14.9837 4.30052 15.3969 5.33844L17.1958 9.85705C17.37 10.2946 17.7639 10.5936 18.216 10.6314L22.8853 11.0225C23.9578 11.1124 24.3927 12.5107 23.5756 13.242L20.0181 16.4258C19.6736 16.7341 19.5231 17.2178 19.6284 17.6788L20.7153 22.4391C20.9649 23.5325 19.8263 24.3968 18.9081 23.8108L14.9105 21.2599C14.5234 21.0128 14.0366 21.0128 13.6495 21.2599L9.65189 23.8108C8.73366 24.3968 7.59509 23.5325 7.84474 22.4391L8.93162 17.6788C9.03687 17.2178 8.88642 16.7341 8.54193 16.4258L4.98441 13.242C4.16726 12.5107 4.60215 11.1124 5.67468 11.0225L10.344 10.6314C10.7961 10.5936 11.19 10.2946 11.3642 9.85705L13.1631 5.33844Z" fill="#C4C4C4"/>
<path d="M3.65537 1.26852C3.58154 1.25267 3.58154 1.14733 3.65537 1.13148C4.19453 1.0157 4.6157 0.594531 4.73148 0.0553674C4.74733 -0.018456 4.85267 -0.0184557 4.86852 0.0553677C4.9843 0.594531 5.40547 1.0157 5.94463 1.13148C6.01846 1.14733 6.01846 1.25267 5.94463 1.26852C5.40547 1.3843 4.9843 1.80547 4.86852 2.34463C4.85267 2.41846 4.74733 2.41846 4.73148 2.34463C4.6157 1.80547 4.19453 1.3843 3.65537 1.26852Z" fill="#C4C4C4"/>
<path d="M0.0830514 4.30278C-0.0276838 4.279 -0.0276838 4.121 0.0830514 4.09722C0.891797 3.92355 1.52355 3.2918 1.69722 2.48305C1.721 2.37232 1.879 2.37232 1.90278 2.48305C2.07645 3.2918 2.7082 3.92355 3.51695 4.09722C3.62768 4.121 3.62768 4.279 3.51695 4.30278C2.7082 4.47645 2.07645 5.1082 1.90278 5.91695C1.879 6.02768 1.721 6.02768 1.69722 5.91695C1.52355 5.1082 0.891797 4.47645 0.0830514 4.30278Z" fill="#C4C4C4"/>
<path d="M3.68305 7.90278C3.57232 7.879 3.57232 7.721 3.68305 7.69722C4.4918 7.52355 5.12356 6.8918 5.29722 6.08305C5.321 5.97232 5.479 5.97232 5.50278 6.08305C5.67645 6.8918 6.3082 7.52355 7.11695 7.69722C7.22768 7.721 7.22768 7.879 7.11695 7.90278C6.3082 8.07645 5.67645 8.7082 5.50278 9.51695C5.479 9.62768 5.321 9.62768 5.29722 9.51695C5.12356 8.7082 4.4918 8.07645 3.68305 7.90278Z" fill="#C4C4C4"/>
</svg>
