<svg width="24" height="24" viewBox="0 0 24 24" fill="none" xmlns="http://www.w3.org/2000/svg">
<path d="M8.64683 21.1708L7.76111 20.7162C7.66738 20.6681 7.60818 20.5698 7.60818 20.4622V12.6369C7.60818 12.5616 7.63732 12.4894 7.68921 12.4361L9.65217 10.4213C9.96756 10.0976 10.2301 9.72374 10.4295 9.31425L12.0116 6.06643C12.2997 5.47496 12.4497 4.82277 12.4497 4.16149V2.17173C12.4497 2.14892 12.4523 2.12601 12.4583 2.10407C12.6256 1.49831 13.327 1.22254 13.8494 1.57997L14.6067 2.09821C14.664 2.13739 14.705 2.19708 14.7217 2.26561L15.5694 5.7462C15.6872 6.23005 15.5491 6.74189 15.2055 7.09456L14.7105 7.60267C13.6648 8.67603 14.4054 10.5113 15.8843 10.5113H21.2317C22.1507 10.5113 22.8143 11.4142 22.5618 12.3212L19.9928 21.5503C19.8231 22.1599 19.2803 22.5801 18.6627 22.5801H14.1736C14.0605 22.5801 13.9478 22.5659 13.8381 22.5377L8.92996 21.2783C8.83203 21.2531 8.73708 21.2171 8.64683 21.1708Z" fill="#C4C4C4"/>
<path d="M6.22487 12.6292V20.4622C6.22487 20.5698 6.16567 20.6681 6.07194 20.7162L5.49874 21.0104C5.30667 21.109 5.09486 21.1603 4.88011 21.1603H2.76661C2.00263 21.1603 1.3833 20.5246 1.3833 19.7404V13.351C1.3833 12.5669 2.00263 11.9312 2.76661 11.9312H4.88011C5.09486 11.9312 5.30666 11.9825 5.49874 12.0811L6.07194 12.3752C6.16567 12.4233 6.22487 12.5217 6.22487 12.6292Z" fill="#C4C4C4"/>
<path fill-rule="evenodd" clip-rule="evenodd" d="M13.5026 23.9152L8.59445 22.6557C8.39863 22.6055 8.20874 22.5334 8.0282 22.4407L7.04025 21.9337C6.96236 21.8937 6.87069 21.8937 6.7928 21.9337L6.11737 22.2803C5.73322 22.4775 5.30961 22.5801 4.88011 22.5801H2.76661C1.23865 22.5801 0 21.3087 0 19.7404V13.351C0 11.7827 1.23865 10.5113 2.76661 10.5113H4.88011C5.30961 10.5113 5.73322 10.6139 6.11738 10.8111L6.73817 11.1297C6.84468 11.1844 6.97332 11.1629 7.05753 11.0765L8.67402 9.41729C8.88429 9.20147 9.05928 8.95226 9.19226 8.67927L10.7744 5.43145C10.9664 5.03714 11.0664 4.60234 11.0664 4.16149V2.08567C11.0664 2.02346 11.0724 1.96141 11.0843 1.90041C11.4055 0.252089 13.2541 -0.533854 14.6167 0.398576L15.5186 1.01571C15.7692 1.18718 15.9485 1.44838 16.0215 1.74828L16.9114 5.40183C17.103 6.18844 16.9563 7.01204 16.5256 7.67158C16.4942 7.71973 16.4612 7.76701 16.4268 7.81333C16.3526 7.91308 16.2715 8.00842 16.1837 8.09855L15.6886 8.60667C15.5144 8.78556 15.6378 9.09144 15.8843 9.09144H21.2317C23.0698 9.09144 24.3968 10.8972 23.8919 12.7113L21.3229 21.9404C20.9835 23.1595 19.8979 24 18.6627 24H14.1736C13.9474 24 13.7221 23.9715 13.5026 23.9152ZM7.76111 20.7162L8.64683 21.1708C8.73708 21.2171 8.83203 21.2531 8.92996 21.2783L13.8381 22.5377C13.9478 22.5659 14.0605 22.5801 14.1736 22.5801H18.6627C19.2803 22.5801 19.8231 22.1599 19.9928 21.5503L22.5618 12.3212C22.8143 11.4142 22.1507 10.5113 21.2317 10.5113H15.8843C14.4054 10.5113 13.6648 8.67603 14.7105 7.60267L15.2055 7.09456C15.5491 6.74189 15.6872 6.23005 15.5694 5.7462L14.7217 2.26561C14.705 2.19708 14.664 2.13739 14.6067 2.09821L13.8494 1.57997C13.327 1.22254 12.6256 1.49831 12.4583 2.10407C12.4523 2.12601 12.4497 2.14892 12.4497 2.17173V4.16149C12.4497 4.82277 12.2997 5.47496 12.0116 6.06643L10.4295 9.31425C10.2301 9.72374 9.96756 10.0976 9.65217 10.4213L7.68921 12.4361C7.63732 12.4894 7.60818 12.5616 7.60818 12.6369V20.4622C7.60818 20.5698 7.66738 20.6681 7.76111 20.7162ZM6.22487 20.4622V12.6292C6.22487 12.5217 6.16567 12.4233 6.07194 12.3752L5.49874 12.0811C5.30666 11.9825 5.09486 11.9312 4.88011 11.9312H2.76661C2.00263 11.9312 1.3833 12.5669 1.3833 13.351V19.7404C1.3833 20.5246 2.00263 21.1603 2.76661 21.1603H4.88011C5.09486 21.1603 5.30667 21.109 5.49874 21.0104L6.07194 20.7162C6.16567 20.6681 6.22487 20.5698 6.22487 20.4622Z" fill="#C4C4C4"/>
</svg>
