<svg width="24" height="24" viewBox="0 0 24 24" fill="none" xmlns="http://www.w3.org/2000/svg">
<path d="M11.2239 5.65042L10.7744 5.43145L11.2239 5.65041C11.4493 5.18753 11.5664 4.67781 11.5664 4.16149V2.08567C11.5664 2.05553 11.5693 2.0255 11.5751 1.99604C11.8305 0.685226 13.2813 0.0906236 14.3343 0.811216L15.2362 1.42835C15.3832 1.52891 15.4913 1.68435 15.5357 1.8666L16.0215 1.74828L15.5357 1.8666L16.4256 5.52015C16.5844 6.17206 16.4624 6.85394 16.107 7.39819C16.0811 7.43787 16.0539 7.47681 16.0256 7.51495L16.0256 7.51496C15.9661 7.59494 15.9013 7.6714 15.8312 7.74379L15.8312 7.74385L15.8255 7.74964L15.8255 7.74972L15.3305 8.25775C14.8664 8.73416 15.1687 9.59144 15.8843 9.59144H21.2317C22.7216 9.59144 23.8312 11.0648 23.4102 12.5772L20.8412 21.8063C20.56 22.8166 19.6658 23.5 18.6627 23.5H14.1736C13.9894 23.5 13.8058 23.4768 13.6269 23.4309L8.71874 22.1714C8.55907 22.1305 8.40407 22.0716 8.25649 21.9959L7.26855 21.4889L7.04025 21.9337L7.26854 21.4889C7.04734 21.3753 6.78569 21.3754 6.5645 21.4889L6.7928 21.9337L6.5645 21.4889L5.88908 21.8355C5.57517 21.9966 5.22977 22.0801 4.88011 22.0801H2.76661C1.52701 22.0801 0.5 21.045 0.5 19.7404V13.351C0.5 12.0465 1.52701 11.0113 2.76661 11.0113H4.88011C5.22977 11.0113 5.57517 11.0948 5.88908 11.2559L6.50987 11.5745C6.81386 11.7306 7.17993 11.6674 7.41566 11.4254L9.03216 9.7662C9.2799 9.51191 9.48563 9.21876 9.64176 8.89823L11.2239 5.65042ZM14.8891 1.68557L14.6067 2.09821L14.8891 1.68557L14.1317 1.16733L13.8494 1.57997L14.1317 1.16733C13.3125 0.606768 12.2306 1.05056 11.9764 1.97096C11.9562 2.04413 11.9497 2.11292 11.9497 2.17173V4.16149C11.9497 4.7473 11.8168 5.32457 11.5621 5.84747L9.98002 9.09528C9.8037 9.45725 9.57195 9.78711 9.29403 10.0724L7.33108 12.0872C7.18692 12.2352 7.10818 12.4331 7.10818 12.6369V20.4622C7.10818 20.7523 7.26789 21.0251 7.53282 21.161L8.41853 21.6156C8.54175 21.6788 8.67158 21.7282 8.80567 21.7626L13.7139 23.0221L13.8381 22.5377L13.7139 23.0221C13.8641 23.0606 14.0185 23.0801 14.1736 23.0801H18.6627C19.5125 23.0801 20.2467 22.5028 20.4745 21.6844L23.0435 12.4553C23.3799 11.2466 22.4989 10.0113 21.2317 10.0113H15.8843C14.8745 10.0113 14.3128 8.72742 15.0686 7.95159L15.5637 7.44347C16.0291 6.96573 16.2132 6.27673 16.0552 5.62787L15.2074 2.14729C15.1621 1.9611 15.05 1.79567 14.8891 1.68557ZM5.72703 21.4552L5.49874 21.0104L5.72704 21.4552L6.30023 21.161C6.56516 21.0251 6.72487 20.7523 6.72487 20.4622V12.6292C6.72487 12.3392 6.56516 12.0664 6.30024 11.9304L6.07194 12.3752L6.30024 11.9304L5.72704 11.6362C5.46472 11.5016 5.1747 11.4312 4.88011 11.4312H2.76661C1.71428 11.4312 0.883305 12.3031 0.883305 13.351V19.7404C0.883305 20.7883 1.71428 21.6603 2.76661 21.6603H4.88011C5.1747 21.6603 5.46471 21.5898 5.72703 21.4552Z" stroke="black"/>
</svg>
