<svg width="24" height="24" viewBox="0 0 24 24" fill="none" xmlns="http://www.w3.org/2000/svg">
<path fill-rule="evenodd" clip-rule="evenodd" d="M10.4974 0.0847875L15.4055 1.34426C15.6014 1.39451 15.7913 1.46661 15.9718 1.55927L16.9598 2.0663C17.0376 2.10627 17.1293 2.10627 17.2072 2.06629L17.8826 1.71966C18.2668 1.52251 18.6904 1.41986 19.1199 1.41986H21.2334C22.7613 1.41986 24 2.69125 24 4.25959V10.649C24 12.2173 22.7613 13.4887 21.2334 13.4887H19.1199C18.6904 13.4887 18.2668 13.3861 17.8826 13.1889L17.2618 12.8703C17.1553 12.8156 17.0267 12.8371 16.9425 12.9235L15.326 14.5827C15.1157 14.7985 14.9407 15.0477 14.8077 15.3207L13.2256 18.5686C13.0336 18.9629 12.9336 19.3977 12.9336 19.8385V21.9143C12.9336 21.9765 12.9276 22.0386 12.9157 22.0996C12.5945 23.7479 10.7459 24.5339 9.3833 23.6014L8.48144 22.9843C8.23085 22.8128 8.05152 22.5516 7.97848 22.2517L7.08861 18.5982C6.89702 17.8116 7.04369 16.988 7.47437 16.3284C7.50582 16.2803 7.53878 16.233 7.57323 16.1867C7.64741 16.0869 7.72851 15.9916 7.81632 15.9014L8.31136 15.3933C8.48564 15.2144 8.36221 14.9086 8.11573 14.9086H2.76829C0.930215 14.9086 -0.396827 13.1028 0.108132 11.2887L2.67713 2.05959C3.01647 0.840495 4.10205 0 5.33729 0H9.82637C10.0526 0 10.2779 0.0284737 10.4974 0.0847875ZM16.3918 3.53779C16.3918 3.43023 16.3326 3.3319 16.2389 3.28379L15.3532 2.82924C15.2629 2.78291 15.168 2.74686 15.07 2.72173L10.1619 1.46226C10.0522 1.4341 9.93948 1.41986 9.82637 1.41986H5.33729C4.71967 1.41986 4.17688 1.84011 4.00721 2.44966L1.43821 11.6788C1.18573 12.5858 1.84925 13.4887 2.76829 13.4887H8.11573C9.5946 13.4887 10.3352 15.324 9.2895 16.3973L8.79447 16.9054C8.45088 17.2581 8.31276 17.7699 8.43061 18.2538L9.27835 21.7344C9.29504 21.8029 9.33602 21.8626 9.39329 21.9018L10.1506 22.42C10.673 22.7775 11.3744 22.5017 11.5417 21.8959C11.5477 21.874 11.5503 21.8511 11.5503 21.8283V19.8385C11.5503 19.1772 11.7003 18.525 11.9884 17.9336L13.5705 14.6857C13.7699 14.2763 14.0324 13.9024 14.3478 13.5787L16.3108 11.5639C16.3627 11.5106 16.3918 11.4384 16.3918 11.3631V3.53779ZM17.9281 3.28379C17.8343 3.3319 17.7751 3.43023 17.7751 3.53779V11.3708C17.7751 11.4783 17.8343 11.5767 17.9281 11.6248L18.5013 11.9189C18.6933 12.0175 18.9051 12.0688 19.1199 12.0688H21.2334C21.9974 12.0688 22.6167 11.4331 22.6167 10.649V4.25959C22.6167 3.47542 21.9974 2.83973 21.2334 2.83973H19.1199C18.9051 2.83973 18.6933 2.89105 18.5013 2.98962L17.9281 3.28379Z" fill="#C4C4C4"/>
<path d="M15.3532 2.82924L16.2389 3.28379C16.3326 3.3319 16.3918 3.43023 16.3918 3.53779V11.3631C16.3918 11.4384 16.3627 11.5106 16.3108 11.5639L14.3478 13.5787C14.0324 13.9024 13.7699 14.2763 13.5705 14.6857L11.9884 17.9336C11.7003 18.525 11.5503 19.1772 11.5503 19.8385V21.8283C11.5503 21.8511 11.5477 21.874 11.5417 21.8959C11.3744 22.5017 10.673 22.7775 10.1506 22.42L9.39329 21.9018C9.33602 21.8626 9.29504 21.8029 9.27835 21.7344L8.43061 18.2538C8.31276 17.7699 8.45088 17.2581 8.79447 16.9054L9.2895 16.3973C10.3352 15.324 9.5946 13.4887 8.11573 13.4887H2.76829C1.84925 13.4887 1.18573 12.5858 1.43821 11.6788L4.00721 2.44966C4.17688 1.84011 4.71967 1.41986 5.33729 1.41986H9.82637C9.93948 1.41986 10.0522 1.4341 10.1619 1.46226L15.07 2.72173C15.168 2.74686 15.2629 2.78291 15.3532 2.82924Z" fill="#C4C4C4"/>
<path d="M17.7751 11.3708V3.53779C17.7751 3.43023 17.8343 3.3319 17.9281 3.28379L18.5013 2.98962C18.6933 2.89105 18.9051 2.83973 19.1199 2.83973H21.2334C21.9974 2.83973 22.6167 3.47542 22.6167 4.25959V10.649C22.6167 11.4331 21.9974 12.0688 21.2334 12.0688H19.1199C18.9051 12.0688 18.6933 12.0175 18.5013 11.9189L17.9281 11.6248C17.8343 11.5767 17.7751 11.4783 17.7751 11.3708Z" fill="#C4C4C4"/>
</svg>
