<svg width="24" height="24" viewBox="0 0 24 24" fill="none" xmlns="http://www.w3.org/2000/svg">
<path d="M7.97444 16.485L7.57323 16.1867L7.97445 16.485C8.03552 16.4029 8.10225 16.3245 8.17446 16.2504L8.66949 15.7422C9.13364 15.2658 8.83128 14.4086 8.11573 14.4086H2.76829C1.27841 14.4086 0.168833 12.9352 0.589818 11.4228L3.15881 2.19367C3.44003 1.18341 4.33419 0.5 5.33729 0.5H9.82637C10.0106 0.5 10.1942 0.523186 10.3731 0.569096L10.4974 0.0847875L10.3731 0.569097L15.2813 1.82857C15.4409 1.86954 15.5959 1.92837 15.7435 2.00411L15.9718 1.55927L15.7435 2.00411L16.7315 2.51113C16.9527 2.62466 17.2143 2.62465 17.4355 2.51113L18.1109 2.1645C18.4248 2.0034 18.7702 1.91986 19.1199 1.91986H21.2334C22.473 1.91986 23.5 2.95502 23.5 4.25959V10.649C23.5 11.9535 22.473 12.9887 21.2334 12.9887H19.1199C18.7702 12.9887 18.4248 12.9052 18.1109 12.7441L17.4901 12.4255C17.1861 12.2694 16.8201 12.3326 16.5843 12.5746L14.9678 14.2338C14.7201 14.4881 14.5144 14.7812 14.3582 15.1018L12.7761 18.3496C12.5507 18.8125 12.4336 19.3222 12.4336 19.8385V21.9143C12.4336 21.9445 12.4307 21.9745 12.4249 22.004C12.1695 23.3148 10.7187 23.9094 9.66567 23.1888L8.7638 22.5717C8.61685 22.4711 8.50866 22.3157 8.46427 22.1334L7.5744 18.4798C7.41562 17.8279 7.53761 17.1461 7.89302 16.6018C7.91892 16.5621 7.94607 16.5232 7.97444 16.485ZM15.1943 2.23742L15.1943 2.23742L10.2861 0.977947L10.1619 1.46226L10.2861 0.977947C10.1359 0.939393 9.98147 0.919863 9.82637 0.919863H5.33729C4.48753 0.919863 3.75332 1.49719 3.52552 2.31558L0.956524 11.5447C0.620073 12.7534 1.50106 13.9887 2.76829 13.9887H8.11573C9.12552 13.9887 9.68723 15.2726 8.93137 16.0484L8.43633 16.5565C7.97089 17.0343 7.78677 17.7233 7.94481 18.3721L8.79255 21.8527C8.8379 22.0389 8.95002 22.2043 9.11092 22.3144L9.86826 22.8327C10.6875 23.3932 11.7694 22.9494 12.0236 22.029C12.0438 21.9559 12.0503 21.8871 12.0503 21.8283V19.8385C12.0503 19.2527 12.1832 18.6754 12.4379 18.1525L14.02 14.9047C14.1963 14.5428 14.4281 14.2129 14.706 13.9276L16.6689 11.9128C16.8131 11.7648 16.8918 11.5669 16.8918 11.3631V3.53779C16.8918 3.24771 16.7321 2.97492 16.4672 2.83896L15.5815 2.3844C15.4582 2.32116 15.3284 2.27183 15.1943 2.23742ZM18.273 2.54478L18.5013 2.98962L18.273 2.54479L17.6998 2.83896C17.4348 2.97492 17.2751 3.24772 17.2751 3.53779V11.3708C17.2751 11.6608 17.4348 11.9336 17.6998 12.0696L18.273 12.3638C18.5353 12.4984 18.8253 12.5688 19.1199 12.5688H21.2334C22.2857 12.5688 23.1167 11.6969 23.1167 10.649V4.25959C23.1167 3.21165 22.2857 2.33973 21.2334 2.33973H19.1199C18.8253 2.33973 18.5353 2.41016 18.273 2.54478Z" stroke="black"/>
</svg>
