<svg width="24" height="24" viewBox="0 0 24 24" fill="none" xmlns="http://www.w3.org/2000/svg">
<path fill-rule="evenodd" clip-rule="evenodd" d="M5.36331 8C5.22568 8 5.11844 8.11782 5.1331 8.25292L6.62045 21.9578C6.7465 23.1193 7.73932 24 8.92253 24H15.1803C16.3635 24 17.3563 23.1193 17.4824 21.9578L18.9697 8.25292C18.9844 8.11782 18.8771 8 18.7395 8H5.36331ZM7.29573 9.71429C7.1581 9.71429 7.05086 9.83211 7.06552 9.96721L8.18078 20.2435C8.30683 21.405 9.29965 22.2857 10.4829 22.2857H13.62C14.8032 22.2857 15.796 21.405 15.922 20.2435L17.0373 9.96721C17.0519 9.83211 16.9447 9.71429 16.8071 9.71429H7.29573Z" fill="#C4C4C4"/>
<path fill-rule="evenodd" clip-rule="evenodd" d="M19.3789 1.50632C19.5024 1.47365 19.6294 1.54601 19.6625 1.66794L19.9921 2.88225C20.0251 3.00418 19.9519 3.12952 19.8283 3.16219L4.62108 7.18498C4.49757 7.21765 4.37062 7.14529 4.33752 7.02335L4.00795 5.80905C3.97485 5.68711 4.04815 5.56178 4.17166 5.52911L7.30257 4.70088C6.80615 2.87186 8.40622 0.859415 10.8764 0.205966C13.2465 -0.42099 15.5565 0.430881 16.1783 2.11645C16.2221 2.23506 16.3481 2.30805 16.4716 2.27538L19.3789 1.50632ZM14.3471 2.83739C14.4706 2.80472 14.5454 2.67752 14.4824 2.56766C14.3538 2.34344 14.1022 2.10722 13.6556 1.93024C13.0645 1.696 12.2332 1.62183 11.3259 1.86184C10.4186 2.10184 9.7362 2.57642 9.34292 3.07107C9.04576 3.44481 8.94748 3.77359 8.9497 4.03123C8.95079 4.15746 9.07996 4.23071 9.20347 4.19804L14.3471 2.83739Z" fill="#C4C4C4"/>
<path d="M10.2826 20.5C10.3996 20.5 10.4917 20.4 10.4819 20.2834L9.76528 11.6834C9.75664 11.5797 9.66999 11.5 9.56597 11.5H8.96736C8.85035 11.5 8.75833 11.6 8.76805 11.7166L9.48472 20.3166C9.49336 20.4203 9.58001 20.5 9.68403 20.5H10.2826Z" fill="#C4C4C4"/>
<path d="M13.7173 20.5C13.6003 20.5 13.5083 20.4 13.518 20.2834L14.2327 11.6834C14.2414 11.5798 14.328 11.5 14.4321 11.5H15.0363C15.1534 11.5 15.2454 11.6001 15.2356 11.7168L14.5096 20.3168C14.5009 20.4204 14.4143 20.5 14.3103 20.5H13.7173Z" fill="#C4C4C4"/>
<path fill-rule="evenodd" clip-rule="evenodd" d="M11.7 20.5C11.5895 20.5 11.5 20.4105 11.5 20.3V11.7C11.5 11.5895 11.5895 11.5 11.7 11.5H12.3C12.4105 11.5 12.5 11.5895 12.5 11.7V20.3C12.5 20.4105 12.4105 20.5 12.3 20.5H11.7Z" fill="#C4C4C4"/>
</svg>
