<svg width="24" height="24" viewBox="0 0 24 24" fill="none" xmlns="http://www.w3.org/2000/svg">
<path d="M17 4.5C17 6.98528 14.7614 9 12 9C9.23858 9 7 6.98528 7 4.5C7 2.01472 9.23858 0 12 0C14.7614 0 17 2.01472 17 4.5Z" fill="#C4C4C4"/>
<path d="M2 18C2 14.1122 4.73899 10.8002 8.57501 9.54174C9.57601 10.0823 10.7477 10.393 12 10.393C13.2523 10.393 14.424 10.0823 15.425 9.54174C19.261 10.8002 22 14.1122 22 18C22 18.7758 21.8909 19.5286 21.6859 20.2468C19.2555 22.5581 15.8149 24 12 24C8.18514 24 4.74447 22.5581 2.31413 20.2468C2.10906 19.5286 2 18.7758 2 18Z" fill="#C4C4C4"/>
</svg>
