<svg width="24" height="24" viewBox="0 0 24 24" fill="none" xmlns="http://www.w3.org/2000/svg">
<path d="M16.5 4.5C16.5 6.98528 14.4853 9 12 9C9.51472 9 7.5 6.98528 7.5 4.5C7.5 2.01472 9.51472 0 12 0C14.4853 0 16.5 2.01472 16.5 4.5Z" fill="#C4C4C4"/>
<path d="M3 18C3 14.1122 5.46509 10.8002 8.91751 9.54174C9.81841 10.0823 10.8729 10.393 12 10.393C13.1271 10.393 14.1816 10.0823 15.0825 9.54174C18.5349 10.8002 21 14.1122 21 18C21 18.7758 20.9019 19.5286 20.7173 20.2468C18.53 22.5581 15.4334 24 12 24C8.56662 24 5.47002 22.5581 3.28271 20.2468C3.09815 19.5286 3 18.7758 3 18Z" fill="#C4C4C4"/>
</svg>
