<svg width="24" height="24" viewBox="0 0 24 24" fill="none" xmlns="http://www.w3.org/2000/svg">
<g>
<path d="M20.46 20.0044C19.5347 20.8079 18.5029 21.4271 17.3647 21.8619C16.2265 22.2873 15.0421 22.5 13.8114 22.5C12.8675 22.5 11.956 22.3724 11.077 22.1171C10.2071 21.8714 9.39283 21.5216 8.63404 21.0679C7.87526 20.6047 7.18125 20.0564 6.55201 19.423C5.92277 18.7802 5.38607 18.0712 4.9419 17.2961C4.49774 16.5115 4.15073 15.6702 3.90089 14.7721C3.6603 13.8741 3.54 12.9429 3.54 11.9787C3.54 11.0145 3.6603 10.0881 3.90089 9.19953C4.15073 8.31094 4.49774 7.47907 4.9419 6.70392C5.38607 5.91931 5.92277 5.21033 6.55201 4.57698C7.18125 3.93417 7.87526 3.38589 8.63404 2.93214C9.39283 2.47839 10.2071 2.12863 11.077 1.88285C11.956 1.62762 12.8675 1.5 13.8114 1.5C15.0421 1.5 16.2265 1.71742 17.3647 2.15226C18.5029 2.57765 19.5347 3.1921 20.46 3.99561L18.378 7.54051C17.7765 6.91661 17.0825 6.42978 16.2959 6.08001C15.5094 5.7208 14.6812 5.54119 13.8114 5.54119C12.9415 5.54119 12.1226 5.71134 11.3546 6.05165C10.5958 6.39196 9.92953 6.85517 9.35582 7.44126C8.7821 8.01789 8.32868 8.69851 7.99555 9.48312C7.66243 10.2583 7.49587 11.0901 7.49587 11.9787C7.49587 12.8768 7.66243 13.7181 7.99555 14.5027C8.32868 15.2873 8.7821 15.9727 9.35582 16.5587C9.92953 17.1448 10.5958 17.608 11.3546 17.9483C12.1226 18.2887 12.9415 18.4588 13.8114 18.4588C14.3111 18.4588 14.7969 18.3974 15.2688 18.2745C15.7407 18.1516 16.1895 17.9814 16.6152 17.764V11.9787H20.46V20.0044Z" fill="#ffbb01"/>
<path d="M13.4026 5.54119L14.6791 9.5544H18.8097L15.468 12.0347L16.7444 16.0479L13.4026 13.5676L10.0609 16.0479L11.3373 12.0347L7.99555 9.5544H12.1262L13.4026 5.54119Z" fill="#ffbb01"/>
</g>
</svg>
