<svg width="22" height="8" viewBox="0 0 22 8" fill="none" xmlns="http://www.w3.org/2000/svg">
<g>
<path d="M5.6402 6.66813C5.33173 6.93597 4.9878 7.14236 4.6084 7.28731C4.22899 7.4291 3.83416 7.5 3.42391 7.5C3.10928 7.5 2.80545 7.45746 2.51241 7.37238C2.22246 7.29046 1.95101 7.17387 1.69807 7.02262C1.44514 6.86822 1.21379 6.68546 1.00404 6.47434C0.794285 6.26007 0.615378 6.02375 0.467317 5.76536C0.319256 5.50383 0.203584 5.22338 0.120299 4.92404C0.0400998 4.62469 0 4.31431 0 3.99291C0 3.67151 0.0400998 3.36271 0.120299 3.06651C0.203584 2.77031 0.319256 2.49302 0.467317 2.23464C0.615378 1.9731 0.794285 1.73678 1.00404 1.52566C1.21379 1.31139 1.44514 1.12863 1.69807 0.97738C1.95101 0.826131 2.22246 0.709543 2.51241 0.627616C2.80545 0.542539 3.10928 0.5 3.42391 0.5C3.83416 0.5 4.22899 0.572474 4.6084 0.717421C4.9878 0.859217 5.33173 1.06403 5.6402 1.33187L4.94616 2.5135C4.74566 2.30554 4.51432 2.14326 4.25212 2.02667C3.98993 1.90693 3.71386 1.84706 3.42391 1.84706C3.13396 1.84706 2.86097 1.90378 2.60495 2.01722C2.35201 2.13065 2.12992 2.28506 1.93867 2.48042C1.74743 2.67263 1.59628 2.8995 1.48524 3.16104C1.37419 3.41942 1.31867 3.69671 1.31867 3.99291C1.31867 4.29226 1.37419 4.5727 1.48524 4.83423C1.59628 5.09577 1.74743 5.32422 1.93867 5.51958C2.12992 5.71494 2.35201 5.86934 2.60495 5.98278C2.86097 6.09622 3.13396 6.15294 3.42391 6.15294C3.59048 6.15294 3.75242 6.13246 3.90973 6.09149C4.06705 6.05053 4.21665 5.99381 4.35854 5.92134V3.99291H5.6402V6.66813Z" fill="#ffbb01"/>
<path d="M3.28766 1.84706L3.71315 3.1848H5.09008L3.97612 4.01156L4.40162 5.3493L3.28766 4.52253L2.1737 5.3493L2.59919 4.01156L1.48524 3.1848H2.86216L3.28766 1.84706Z" fill="#ffbb01"/>
<path d="M6.18895 7.35348V0.575625H10.7372V1.93214H7.51687V3.28866H9.69614V4.64517H7.51687V5.99696H11.1934V0.575625H12.6139L15.1725 5.0422V0.575625H16.5005H22L19.1776 5.99696H22V7.35348H16.8641L19.6958 1.93214H16.5005V7.35348H15.08L12.5213 2.89163V7.35348H6.18895Z" fill="#ffbb01"/>
</g>
</svg>
